/* XPM */
static char *result[] = {
/* columns rows colors chars-per-pixel */
"32 32 6 1 ",
"  c gray33",
". c gray47",
"X c #2E2EB0",
"o c #0905F7",
"O c gray63",
"+ c None",
/* pixels */
"++++++++++++++++++++++++++++++++",
"++++++++++++++++++++++++++++++++",
"++++++++++++++++++++++++++++++++",
"++++++++++++++++++++++++++++++++",
"+++++++++++++++++++++++++++..+++",
"++++++   +++++++++++++++++...+++",
"++++  oo  +++++++++++++++...++++",
"+++ ooXXo   +++++++++ ++..++++++",
"+++  XXooXX  +++++++.  ..+++++++",
"++++  oXXoooX +++++O..   +++++++",
"+++++  XooXXX   ++OOO...  ++++++",
"++++++   XXooXX  OOOOOO..  +++++",
"+++++++   oXXXoo OOOOO..  ++++++",
"+++++++++  XooOOOOOOOO.  +++++++",
"++++++++++  oOOOOOOO..  ++++++++",
"+++++++++++ O OOOOO..  +++++++++",
"+++++++++++O  OOOOO.  .+++++++++",
"++++++++++OO  OOO..  o...+++++++",
"+++++++++OOOOOOO..  ooo...++++++",
"+++   ++OOOOOO... ooooXoo..+++++",
"++.... .OOOOO... ..ooXoooo...+++",
"++OO.. ..OOO..  ++..XoooooXX..++",
"++OOO. +++...  ++++..oXXXXooo..+",
"+++OO.++++..  ++++++..XooooXXX.+",
"++++++++++++ ++++++++..oXXXXo.++",
"++++++++++++++++++++++..Xooo.+++",
"+++++++++++++++++++++++.....++++",
"++++++++++++++++++++++++++++++++",
"++++++++++++++++++++++++++++++++",
"++++++++++++++++++++++++++++++++",
"++++++++++++++++++++++++++++++++",
"++++++++++++++++++++++++++++++++"
};
