/* XPM */
static char *result[] = {
/* columns rows colors chars-per-pixel */
"32 32 9 1 ",
"  c gray33",
". c gray47",
"X c yellow",
"o c #FF8066",
"O c #F2AE61",
"+ c #2E2EB0",
"@ c #0905F7",
"# c gray63",
"$ c None",
/* pixels */
"$$$$$$$$$$$$$$$$$$$$$$$$$$$$$$$$",
"$$$$$$$$$$$$$$$$$$$$$$$$$$$$$$$$",
"$$$$$$$$$$$$$$$$O$o$$$$$$$$$$$$$",
"$$$$$$$$$$$$$$$$Oo$$$$$$$$$$$$$$",
"$$$$$$$$$$$$$$$$$o$$$$$$$$$..$$$",
"$$$$$$   $$$$$$$ooO$$$$$$$...$$$",
"$$$$  @@  $$$$$$oXOO$$$$$...$$$$",
"$$$ @@++@   $$$$$$X$$ $$..$$$$$$",
"$$$  ++@@++  $$$O$$$.  ..$$$$$$$",
"$$$$  @++@@@+ $$OOo#..   $$$$$$$",
"$$$$$  +@@+++   XOo##...  $$$$$$",
"$$$$$$   ++@@++  Xo####..  $$$$O",
"$Oo$$$$   @+++@@ oO###..  $$$OoO",
"$XOo$$$$$  +@@###oX###.  $$OO$oX",
"$$XoO$$$$$  @#######..  $$$XooX$",
"$$$ooX$$$$$ # #####..  $$$$$o$$$",
"$$$$ooXX$$$#  #####.  .$$$$$$$$$",
"$$$$$$$$$$##  ###..  @...$$$$$$$",
"$$$$$$$$$#######..  @@@...$$$$$$",
"$$$   $$######... @@@@+@@..$$$$$",
"$$.... .#####... ..@@+@@@@...$$$",
"$$##.. ..###..  $$..+@@@@@++..$$",
"$$###. $$$...  $$$$..@++++@@@..$",
"$$$##.$$$$..  $$$$$$..+@@@@+++.$",
"$$$$$$oo$$$$ $$$$$$$$..@++++@.$$",
"$$$$XooO$$$$$$$$$$$$$$..+@@@.$$$",
"$$$Ooo$$$$$$$$$$$$$$$$$.....$$$$",
"$$$$$$$$$$$$$O$$$$$$$$$$$$$$$$$$",
"$$$$$$$$$$$$oX$$$$$$$$$$$$$$$$$$",
"$$$$$$$$$$$$oX$$$$$$$$$$$$$$$$$$",
"$$$$$$$$$$$Ooo$$$$$$$$$$$$$$$$$$",
"$$$$$$$$$$$OXX$$$$$$$$$$$$$$$$$$"
};
