/* XPM */
static char *result[] = {
/* columns rows colors chars-per-pixel */
"32 32 9 1 ",
"  c gray19",
". c #4B632A",
"X c gray33",
"o c gray47",
"O c red",
"+ c #6F8F44",
"@ c #89C93A",
"# c gray63",
"$ c None",
/* pixels */
"$$$$$$$$$$$$$$$$$$$$$$$$$$$$$$$$",
"$$$$$$$$$$$$$$$$$$$$$$$$$$$$$$$$",
"$$$$$$$$$$$$$$$$$$$$$$$$$$$$$$$$",
"$$$$$$$$$$$$$$$$$$$$$$$$$$$$$$$$",
"$$$$$$$$$$$$$$$$$$$$$$$$$$$$$$$$",
"$$$$$$$$$$$$$$$$$$$$$$$$$$$$$$$$",
"$$$$$$$$$$$$$$$$$$$$$$$$$$$$$$$$",
"$$$$$$$$$$$$$$$$$$$$$$$$$$$$$$$$",
"$$$$$$$$$$$$$$$$  $$$$$$$$$$$$$$",
"$$$$$$$$$$$$$$$ ## $$$$$$$$$$$$$",
"$$$$$$$$$$$$$$ #### $$$$$$$$$$$$",
"$$$$$$$$$$$$$ #..### $$$$$$$$$$$",
"$$$$$$$$$$$$$ .++.## $$$$$$$$$$$",
"$$$$$$$$$$$$ #@@+.### $$$$$$$$$$",
"$$$$$$$$$$$$ ##@+#### $$$$$$$$$$",
"$$$$$$$$$$$$ ##@+.### $$$$$$$$$$",
"$$$$$$$$$$              $$$$$$$$",
"$$$$$$$$##oooooooooooooo#o$$$$$$",
"$$$$$$oOXXOXXOXoOooOooOooOo $$$$",
"$$$$$$ooXXXXXXXXXXXXXooooo  $$$$",
"$$$$$$$oooXXXXXXXXXXXXoo   $$$$$",
"$$$$$$$$$oooXXXXXXXXoo   $$$$$$$",
"$$$$$$$$$$$            $$$$$$$$$",
"$$$$$$$$$$$$$$$$$$$$$$$$$$$$$$$$",
"$$$$$$$$$$$$$$$$$$$$$$$$$$$$$$$$",
"$$$$$$$$$$$$$$$$$$$$$$$$$$$$$$$$",
"$$$$$$$$$$$$$$$$$$$$$$$$$$$$$$$$",
"$$$$$$$$$$$$$$$$$$$$$$$$$$$$$$$$",
"$$$$$$$$$$$$$$$$$$$$$$$$$$$$$$$$",
"$$$$$$$$$$$$$$$$$$$$$$$$$$$$$$$$",
"$$$$$$$$$$$$$$$$$$$$$$$$$$$$$$$$",
"$$$$$$$$$$$$$$$$$$$$$$$$$$$$$$$$"
};
