/* XPM */
static char *result[] = {
/* columns rows colors chars-per-pixel */
"32 32 12 1 ",
"  c #2A400C",
". c #408C3B",
"X c #36C72C",
"o c #6F8F44",
"O c #89C93A",
"+ c #F2AE61",
"@ c #F0CD63",
"# c #0905F7",
"$ c #FFDEB8",
"% c gray83",
"& c white",
"* c None",
/* pixels */
"********************************",
"********************************",
"********************************",
"*************%%%%%%%************",
"*****&***&##%%##     ##*********",
"********&               ********",
"********                 *******",
"*******     oooooooo      ******",
"******   OOOOO#####oooo ooo*****",
"*****  OOOOOO#####.###oooOoo****",
"****  OOOOOOO#########OOOOOoo***",
"****OOOOOOOOOO##OOO##OOOOOOOO***",
"****OOOOOOOOO#OOOOOOOOO$$$$$O***",
"***#####OOO####OOOOOO$$$$$$$$$**",
"***++#######+++##++@@$$$$$$$$$**",
"***+++++++++++++##++@@@@$$$$$$**",
"***++++++++++++++#+++@@@@++@@$**",
"***#++++++++++++++#++@@@++##@@**",
"***#@@@@@@@@@@++++#++++++#####**",
"***##$$$$$$$$$@@++##++++######**",
"****#$$$$$$$$$$@@+##++++#####***",
"****##$$$$$$$$$@@+###+++#####***",
"****###$$$$$$$@@++###++######***",
"*****##$$$$$$$@++###########****",
"******##$$$$$@@++#X.#######*****",
"*******#$$$$$@@+##X.######******",
"********#$$$@@@##..######*******",
"********#@@@@@########%%********",
"**********%%%######%%%%*********",
"*************%%%%%%%************",
"********************************",
"********************************"
};
