/* XPM */
static char *result[] = {
/* columns rows colors chars-per-pixel */
"32 32 3 1 ",
"  c gray10",
". c yellow",
"X c #EEF069",
/* pixels */
"...X                        X...",
".X                            X.",
".                              .",
"X                              X",
"                                ",
"                                ",
"                                ",
"                                ",
"                                ",
"                      X         ",
"                      .         ",
"                     X.X        ",
"                    X...X       ",
"                     X.X        ",
"                      .         ",
"                      X         ",
"                                ",
"                                ",
"                                ",
"                                ",
"                                ",
"                                ",
"                                ",
"                                ",
"                                ",
"                                ",
"                                ",
"                                ",
"X                              X",
".                              .",
".X                            X.",
"...X                        X..."
};
