/* XPM */
static char *result[] = {
/* columns rows colors chars-per-pixel */
"32 32 11 1 ",
"  c gray10",
". c #36130B",
"X c gray19",
"o c #FF2B00",
"O c #CC553D",
"+ c #FF8400",
"@ c yellow",
"# c #0905F7",
"$ c gray83",
"% c white",
"& c None",
/* pixels */
"&&&&&&&&&&&&&&&&&&&&&&&&&&&&&&&&",
"&&&&&&&&&&&&&&&&&&&&&&&&&&&&&&&&",
"&&&&&&&&&&&&&&&&&&&&&&&&&&&&&&&&",
"&&&&&&&&&&&&&&&&&&&&&&&&&&&&&&&&",
"&&&&&&&&&&&&&&&&&&&&&&&&&&&&&&&&",
"&&&&&&&&&&&&&&&&&&&&&&&&&&&&&&&&",
"&&&&&&&&&&&&&&&&&&&&&&&&&&&&&&&&",
"&&&&&&&&&&&&&&&&&&&&&&&&&&&&&&&&",
"&&&&&&&&&&&&&&&&&&&&&&&&&&&&&&&&",
"&&&&&&&&&&&&&&&&&&&&&&&&&  &&&&&",
"&&&&&&&&&&&&&&&&&&&&&&&& $ &&&&&",
"&&&&&&&&&&&&&&&&&&&&&&& $$ &&&&&",
"&&&&&&&&#$$$$$$$$$$$$   $$ &&&&+",
"&&&&&&###$$##$##$$$$$$$$$$..o++&",
"&&&&XX###$$##$##$$$$$$$$....@oOO",
"&&&XXX$$$$$$$$$$$$$$$$$$$...++@@",
"&&&XXX&$$$$$$$$$$$$$$$$$$$$&&&++",
"&&&XXXXXXXXXX  %%%%%%%% XXX&&&&&",
"&&&&XXXXXXXXXX  %%%%%%% XX&&&&&&",
"&&&&&&&&&&&&&&&  %%%%%% &&&&&&&&",
"&&&&&&&&&&&&&&&& %%%%%% &&&&&&&&",
"&&&&&&&&&&&&&&&&  %%%%%%%&&&&&&&",
"&&&&&&&&&&&&&&&&&  %%%%%%&&&&&&&",
"&&&&&&&&&&&&&&&&&&  %%%%%&&&&&&&",
"&&&&&&&&&&&&&&&&&&&      &&&&&&&",
"&&&&&&&&&&&&&&&&&&&&&&&&&&&&&&&&",
"&&&&&&&&&&&&&&&&&&&&&&&&&&&&&&&&",
"&&&&&&&&&&&&&&&&&&&&&&&&&&&&&&&&",
"&&&&&&&&&&&&&&&&&&&&&&&&&&&&&&&&",
"&&&&&&&&&&&&&&&&&&&&&&&&&&&&&&&&",
"&&&&&&&&&&&&&&&&&&&&&&&&&&&&&&&&",
"&&&&&&&&&&&&&&&&&&&&&&&&&&&&&&&&"
};
