/* XPM */
static char *result[] = {
/* columns rows colors chars-per-pixel */
"32 32 182 2 ",
"   c #1B1B53",
".  c #1C1C53",
"X  c #1D1D53",
"o  c #1E1E53",
"O  c #1F1F53",
"+  c #202051",
"@  c #212152",
"#  c #212153",
"$  c #222252",
"%  c #222253",
"&  c #232353",
"*  c #242452",
"=  c #242453",
"-  c #252553",
";  c #212154",
":  c #232354",
">  c #242454",
",  c #252554",
"<  c #202059",
"1  c #222259",
"2  c #232359",
"3  c #23235A",
"4  c #242459",
"5  c #24245A",
"6  c #25255A",
"7  c #24245B",
"8  c #21215E",
"9  c #23235E",
"0  c #24245E",
"q  c #24245F",
"w  c #25255F",
"e  c #1E1E60",
"r  c #1F1E68",
"t  c #1F1E69",
"y  c #1E1D6A",
"u  c #201F68",
"i  c #201F72",
"p  c #212163",
"a  c #232363",
"s  c #222267",
"d  c #232367",
"f  c #242464",
"g  c #242467",
"h  c #212069",
"j  c #232369",
"k  c #24246B",
"l  c #3A3968",
"z  c #292970",
"x  c #292971",
"c  c #2A2A71",
"v  c #2A2A73",
"b  c #292974",
"n  c #282875",
"m  c #2A2A75",
"M  c #292977",
"N  c #292978",
"B  c #2B2B7A",
"V  c #2A2A7B",
"C  c #2B2B7B",
"Z  c #2C2C7B",
"A  c #29297C",
"S  c #29297D",
"D  c #2A2A7C",
"F  c #2B2B7C",
"G  c #2A2A7D",
"H  c #2B2B7D",
"J  c #2A2A7F",
"K  c #2C2C7E",
"L  c #2C2C7F",
"P  c #383771",
"I  c #393872",
"U  c #35337A",
"Y  c #39387A",
"T  c #494779",
"R  c #4B4979",
"E  c #4B497E",
"W  c #4F4D7E",
"Q  c #252482",
"!  c #252485",
"~  c #282880",
"^  c #2A2A80",
"/  c #2B2B80",
"(  c #2C2C80",
")  c #2D2D80",
"_  c #26258A",
"`  c #25248C",
"'  c #25248E",
"]  c #26258F",
"[  c #27268F",
"{  c #28278F",
"}  c #3E3D87",
"|  c #343289",
" . c #3B3A8E",
".. c #3E3D8D",
"X. c #3F3E8D",
"o. c #3F3E8E",
"O. c #110FBD",
"+. c #110FBE",
"@. c #1210BE",
"#. c #403F8E",
"$. c #494782",
"%. c #41408E",
"&. c #494788",
"*. c #4F4D92",
"=. c #48469B",
"-. c #4F4D99",
";. c #504E98",
":. c #514F9B",
">. c #5A5899",
",. c #4C49A6",
"<. c #5B58B0",
"1. c #605EA2",
"2. c #110FC2",
"3. c #110FC3",
"4. c #110FC4",
"5. c #110EC7",
"6. c #100DCA",
"7. c #1210C2",
"8. c #1210C3",
"9. c #1513CB",
"0. c #1412CC",
"q. c #1412CD",
"w. c #1513CD",
"e. c #2B29D1",
"r. c #2A26D8",
"t. c #2B27D8",
"y. c #3F3DD5",
"u. c #0805F7",
"i. c #0905F7",
"p. c #221DF6",
"a. c #3732F6",
"s. c #504DD9",
"d. c #5A55F4",
"f. c #8C8BBC",
"g. c #8C8BBE",
"h. c #8E8DC7",
"j. c #8E8DC8",
"k. c #8F8EC8",
"l. c #8C8BCD",
"z. c #8C8BCE",
"x. c #8D8CCD",
"c. c #9694C5",
"v. c #9694CD",
"b. c #9896CE",
"n. c #9B99D2",
"m. c #9C9AD2",
"M. c #A6A2DA",
"N. c #B0AEDD",
"B. c #B0AEDE",
"V. c #B0AEDF",
"C. c #8685E3",
"Z. c #8280F2",
"A. c #8B88F2",
"S. c #928FF2",
"D. c #AEACEC",
"F. c #AFACEC",
"G. c #B1AFE2",
"H. c #B1AFE4",
"J. c #B1AFEC",
"K. c #B1B0E2",
"L. c #B2B0E2",
"P. c #B4B2E3",
"I. c #B4B2E4",
"U. c #B7B4E6",
"Y. c #B9B6E5",
"T. c #B6B2EF",
"R. c #BDBBE9",
"E. c #BDBCEB",
"W. c #BEBCEA",
"Q. c #BEBCEB",
"!. c #BFBCEC",
"~. c #BFBDEC",
"^. c #BEBCEF",
"/. c #ADABF1",
"(. c #C1BEED",
"). c #C2C0EE",
"_. c #C3C0EF",
"`. c #C5C2F0",
"'. c #C4C3F0",
"]. c #C5C3F0",
"[. c #C6C2F1",
"{. c None",
/* pixels */
"{.{.{.{.{.{.{.{.{.{.{.{.{.{.{.{.{.{.{.{.{.{.{.{.{.{.{.{.{.{.{.{.",
"{.{.{.{.{.{.{.{.{.{.{.{.{.{.{.{.{.{.{.{.{.{.{.{.{.{.{.{.{.{.{.{.",
"{.{.{.{.{.{.{.{.{.{.{.{.{.{.{.{.{.{.{.{.{.{.{.{.{.{.{.{.{.{.{.{.",
"{.{.{.{.{.{.{.{.{.{.{.{.{.{.{.{.{.{.{.{.{.{.{.{.{.{.{.{.{.{.{.{.",
"{.{.{.{.{.{.{.{.{.{.{.{.{.{.{.{.{.X {.{.{.{.{.{.{.{.{.{.{.{.{.{.",
"{.{.{.{.{.{.{.{.{.{.{.{.X X . + ; # # % % % # % {.{.{.{.{.{.{.{.",
"{.{.{.{.{.{.{.{.{.{.{.    P 8 1 9 0 2 9 y % X {.& {.{.{.{.{.{.{.",
"{.{.{.{.{.{.{.{.{.    Y &.< 0 0 2 0 t , 4 0 % T % % {.{.{.{.{.{.",
"{.{.{.{.{.{.{.{.. e >.| p h.X.N ..' ! S 7.E d U & = & {.{.{.{.{.",
"{.{.{.{.{.{.{.{.k =.$.j.I.M S -.x C 8.9 *.1.0 N.0 & R & {.{.{.{.",
"{.{.{.{.{.{.{.g i ` Q.e.} ].x.j.#.y.^ / p.P.0.f.h w l & {.{.{.{.",
"{.{.{.{.{.{.0 j J F.s ) ].].]./ n.( ( i./.Z.L ].3 V., W = {.{.{.",
"{.{.{.{.{.% f ~ 2.H ) ].].].].].E.( p.p.Z.i.].].].g.B.l = & {.{.",
"{.{.{.{.% 7 / C n ) `.].].].'.].) x.) i.i.[.].].].].R., , & {.{.",
"{.{.{.% {.& K : ) S.i.].].'.].].].j.j.:.d.].].].].].f.& 6 & {.{.",
"{.{.% & % c , ) H.) i.A.].].[.].].].s.^.t.G.].].[.:.& 0 : & {.{.",
"{.{.# {.% , D w.) ) Q./.Y.,.].].].].].).z.G.D.]./ %.0 z & 5 {.{.",
"{.% o , # Z ) ) ) w.w.r.M.v.~.].].].W.^ ] ].k.(.) U.L., b & {.{.",
"{.; O , & V = ) ) {  .<.m.C.J.( ].U.#.{ ].].].%.P.x.k.) z & {.{.",
"{.% # : z , & ] ) / / j.K.( j.j.b.( ) ].].].].].L.) ) Z & = {.{.",
"{.& # : : & Q ] v q.j.K.[ ].].k.I.o.`.'.].].].k.w.) _ 6 & = {.{.",
"& & , # : : B O.a ) ( ( ].].].].j._.( ].].].i.a.( 0.9 & % & {.{.",
"= {.& , # ; O.B A i.) ].].].].].].L.( K.].T.p.i.i.3.& V m = {.{.",
"& {., & , & # B i.i.p.:.].].].].( ( k.l.c.a.i./.V.= H ) & & {.{.",
"& {.& , & & , i.i.Z./.i.w.].].#.:.G 4.0 %.) Z.f.u H ) & & {.{.{.",
"& {.% & , , r & i.i.i.j.Q.!.Y.( F 0 & Z 9.O.6.= H ) & & {.{.{.{.",
"{.& & % * @., , , i., h q I ;.j.W.K.L Z & & u {.u.2.& {.{.{.{.{.",
"{.{.& & # ; , @.@.5., , , , , : & , , & & = {.{.& & {.{.{.{.{.{.",
"{.{.{.& = % ; : > t > +.@.: & & , , & & * {.{.& & {.{.{.{.{.{.{.",
"{.{.{.{.{.= & & & = & = & = , , & & & = {.{.& & {.{.{.{.{.{.{.{.",
"{.{.{.{.{.{.{.% & & & & & & & & & - {.{.& = & {.{.{.{.{.{.{.{.{.",
"{.{.{.{.{.{.{.{.{.{.{.& % $ @ $ @ $ = = = {.{.{.{.{.{.{.{.{.{.{."
};
